<!-- bill101: el logotipo de taller101 con la palabra cambiada.
     Lo arma sitio/herramientas/armar-logo.py; no se edita a mano.
     Sansation Bold en trazos, apretón -0.05 em, avance alineado a
     la derecha y aro y «101» en las coordenadas del original. -->
<svg xmlns="http://www.w3.org/2000/svg" viewBox="210.05 208.74 318.70 194.51" role="img" aria-label="bill101" fill="#0080C1">
<g transform="translate(0,351.34) scale(0.047783,-0.047783)"><path d="M4660.8877341313855 243Q4751.8877341313855 214 4871.8877341313855 214Q5111.8877341313855 214 5111.8877341313855 553Q5111.8877341313855 830 4904.8877341313855 830Q4770.8877341313855 830 4660.8877341313855 776ZM4395.8877341313855 1430H4660.8877341313855V970Q4779.8877341313855 1050 4925.8877341313855 1050Q5373.8877341313855 1050 5373.8877341313855 546Q5373.8877341313855 0 4860.8877341313855 0Q4644.8877341313855 0 4395.8877341313855 43ZM5736.487734131386 1430V1220H5471.487734131386V1430ZM5736.487734131386 1050V0H5471.487734131386V1050ZM6149.087734131386 1430V0H5884.087734131386V1430ZM6561.687734131387 1430V0H6296.687734131387V1430Z"/></g>
<path d="M431.49,208.74c-53.63,0-97.26,43.63-97.26,97.26,0,20.28,6.25,39.12,16.91,54.72h-141.09v6.52h145.96c17.85,21.95,45.05,36.01,75.48,36.01,53.63,0,97.26-43.63,97.26-97.26s-43.63-97.26-97.26-97.26ZM431.49,396.74c-29.48,0-55.72-14.14-72.3-35.99v-.02h-.01c-11.55-15.22-18.42-34.18-18.42-54.72,0-50.03,40.7-90.74,90.74-90.74s90.73,40.7,90.73,90.74-40.7,90.74-90.73,90.74Z"/>
<path d="M431.81,262.73c-26.11,0-39.16,14.87-39.16,44.62s13.05,44.38,39.16,44.38,38.48-14.79,38.48-44.38-12.83-44.62-38.48-44.62ZM431.81,337.61c-14.85,0-22.28-10.21-22.28-30.63s7.43-30.14,22.28-30.14,21.61,10.05,21.61,30.14-7.2,30.63-21.61,30.63Z"/>
<rect x="366.4" y="261.5" width="16.27" height="89.61"/>
<rect x="479.98" y="261.19" width="16.27" height="89.61"/>
</svg>
