<svg xmlns="http://www.w3.org/2000/svg" viewBox="0 0 512 512" width="512" height="512"><path fill="#0080C1" fill-rule="nonzero" d="M248.00,510.51C247.31,510.29 243.71,510.07 240.00,510.03C236.29,510.00 230.66,509.63 227.50,509.21C216.64,507.79 211.74,507.03 208.50,506.28C206.71,505.86 204.66,505.52 203.94,505.51C203.22,505.50 201.64,505.15 200.44,504.72C199.23,504.28 197.12,503.72 195.75,503.47C194.38,503.22 190.89,502.33 188.00,501.49C185.11,500.65 181.62,499.65 180.25,499.27C176.51,498.22 172.93,497.02 171.25,496.23C169.82,495.57 168.05,494.91 163.00,493.17C161.76,492.74 159.79,491.97 158.62,491.45C157.46,490.93 155.43,490.03 154.12,489.46C147.12,486.38 142.40,484.08 136.75,481.01C134.55,479.81 131.96,478.41 131.00,477.91C128.95,476.83 128.34,476.46 124.00,473.71C122.21,472.57 119.71,470.99 118.43,470.20C100.54,459.03 79.93,441.22 64.39,423.50C61.38,420.06 58.26,416.93 57.46,416.54C55.34,415.49 44.51,401.07 44.49,399.27C44.49,398.71 43.94,397.35 43.27,396.25C42.60,395.15 41.58,393.46 41.01,392.50C40.44,391.54 39.53,390.07 38.98,389.25C38.44,388.43 37.66,387.03 37.26,386.16C36.85,385.28 36.28,384.43 36.00,384.25C35.72,384.07 35.15,383.22 34.75,382.34C34.35,381.47 33.00,378.95 31.77,376.75C30.53,374.55 28.75,371.18 27.82,369.25C24.47,362.37 22.00,357.01 21.98,356.64C21.97,356.42 21.53,355.35 21.00,354.25C20.47,353.15 20.03,351.91 20.02,351.49C20.01,351.07 19.68,350.27 19.29,349.71C18.54,348.64 17.50,345.83 14.95,338.00C14.10,335.39 13.00,332.12 12.50,330.75C11.59,328.21 11.01,326.13 9.72,320.75C9.32,319.10 8.67,316.62 8.26,315.25C7.40,312.35 5.52,303.00 4.98,299.00C4.78,297.49 4.38,294.97 4.09,293.40C3.80,291.83 3.16,286.76 2.66,282.15C1.56,271.82 1.41,242.89 2.39,232.75C3.21,224.34 4.81,213.38 6.01,208.00C6.53,205.66 7.09,202.74 7.26,201.50C7.43,200.26 8.01,197.96 8.54,196.37C9.07,194.79 9.50,193.10 9.49,192.62C9.49,191.76 10.83,186.92 12.31,182.50C12.72,181.26 13.35,179.07 13.71,177.63C14.07,176.19 14.59,174.73 14.87,174.38C15.16,174.03 15.55,172.96 15.76,172.00C15.97,171.04 16.53,169.35 17.00,168.25C17.87,166.25 18.44,164.73 19.88,160.50C20.31,159.26 20.93,157.91 21.27,157.50C21.61,157.09 22.04,156.03 22.23,155.16C22.41,154.28 22.87,153.32 23.23,153.01C23.60,152.71 24.05,151.85 24.24,151.10C24.53,149.92 26.73,145.15 27.96,143.00C28.20,142.59 28.64,141.69 28.94,141.00C29.24,140.31 30.50,137.95 31.75,135.75C33.00,133.55 34.36,131.07 34.78,130.25C35.20,129.43 36.20,127.74 37.01,126.50C37.82,125.26 38.69,123.78 38.95,123.20C39.51,121.95 47.12,110.72 50.95,105.50C63.70,88.10 83.37,67.85 98.89,56.11C99.52,55.64 100.42,54.90 100.89,54.47C101.37,54.05 102.31,53.33 103.00,52.87C103.69,52.41 105.49,51.14 107.00,50.03C117.64,42.26 129.81,34.84 141.38,29.07C143.24,28.15 145.09,27.19 145.50,26.94C145.91,26.70 146.81,26.25 147.50,25.95C148.19,25.65 149.65,24.99 150.75,24.48C154.96,22.54 157.32,21.53 159.25,20.83C160.35,20.43 162.49,19.61 164.00,19.00C168.76,17.10 173.17,15.48 175.50,14.79C176.74,14.42 178.43,13.87 179.25,13.58C181.76,12.70 189.02,10.61 193.25,9.56C195.45,9.01 198.71,8.18 200.50,7.71C202.29,7.25 205.66,6.56 208.00,6.19C210.34,5.82 213.49,5.28 215.00,4.98C216.51,4.69 219.66,4.24 222.00,3.98C224.34,3.72 227.49,3.28 229.00,2.98C233.18,2.18 270.51,1.78 278.00,2.45C285.58,3.14 291.34,3.87 297.00,4.86C299.34,5.26 302.94,5.88 305.00,6.23C308.40,6.81 312.21,7.66 317.75,9.07C318.85,9.35 321.44,10.00 323.50,10.50C325.56,11.01 328.38,11.78 329.75,12.23C331.12,12.67 333.82,13.50 335.75,14.07C337.68,14.64 340.08,15.53 341.10,16.05C342.12,16.57 343.42,17.00 344.00,17.00C344.58,17.00 345.88,17.43 346.90,17.97C347.92,18.50 350.63,19.64 352.94,20.50C355.24,21.36 357.49,22.26 357.94,22.49C358.38,22.72 361.23,24.06 364.25,25.47C367.27,26.89 370.09,28.26 370.50,28.52C370.91,28.79 371.81,29.23 372.50,29.50C373.19,29.78 374.09,30.23 374.50,30.50C374.91,30.78 375.81,31.23 376.50,31.50C377.19,31.78 378.09,32.23 378.50,32.51C378.91,32.79 380.00,33.36 380.91,33.78C381.82,34.20 383.68,35.32 385.03,36.27C386.38,37.22 387.65,38.00 387.84,38.00C388.04,38.00 389.00,38.53 389.97,39.18C390.95,39.83 393.21,41.28 395.00,42.40C396.79,43.52 398.93,44.92 399.75,45.51C400.57,46.10 403.39,48.08 406.01,49.91C426.41,64.22 449.39,87.25 464.00,108.03C470.12,116.74 475.35,124.94 478.64,131.00C479.46,132.51 480.54,134.43 481.03,135.25C481.52,136.07 483.26,139.45 484.89,142.75C495.16,163.53 501.85,183.09 506.68,206.50C508.60,215.84 509.36,221.58 510.47,235.18C510.71,238.16 511.15,240.85 511.45,241.15C512.17,241.87 512.22,270.08 511.51,270.79C511.24,271.06 510.78,274.09 510.48,277.52C509.04,294.16 508.31,298.80 504.49,315.50C503.65,319.21 502.64,323.26 502.26,324.50C501.88,325.74 500.95,328.77 500.20,331.25C499.45,333.73 498.44,336.88 497.96,338.25C495.85,344.32 494.35,348.34 493.76,349.50C493.41,350.19 492.85,351.62 492.51,352.67C492.17,353.73 491.58,355.19 491.20,355.92C490.82,356.65 490.50,357.41 490.50,357.61C490.50,358.05 484.20,371.44 483.50,372.50C483.22,372.91 482.77,373.77 482.50,374.42C478.89,382.79 459.90,411.00 451.71,420.14C450.63,421.35 448.40,423.88 446.75,425.78C435.63,438.58 418.35,454.00 404.00,463.95C398.66,467.66 391.02,472.73 389.50,473.58C388.54,474.12 386.85,475.10 385.75,475.76C384.65,476.42 382.96,477.39 382.00,477.92C373.95,482.34 370.59,484.08 369.65,484.32C369.04,484.47 368.28,484.91 367.96,485.30C367.64,485.68 367.18,486.00 366.94,486.00C366.70,486.00 364.98,486.70 363.13,487.56C353.94,491.79 341.90,496.53 338.50,497.25C337.54,497.45 336.50,497.82 336.19,498.06C335.88,498.31 334.08,498.94 332.19,499.45C330.30,499.97 326.39,501.06 323.50,501.87C314.83,504.31 301.70,507.10 294.75,507.99C292.55,508.27 289.40,508.73 287.75,509.02C281.66,510.08 250.27,511.26 248.00,510.51ZM276.45,492.47C280.14,492.17 283.70,491.71 284.36,491.46C285.02,491.21 286.73,490.99 288.16,490.97C289.58,490.96 292.44,490.62 294.50,490.21C296.56,489.81 300.05,489.17 302.25,488.79C307.56,487.87 312.58,486.69 316.25,485.48C317.90,484.94 319.77,484.50 320.41,484.50C321.04,484.50 322.62,484.08 323.91,483.57C325.20,483.06 327.15,482.40 328.25,482.12C329.35,481.84 332.16,480.89 334.50,480.01C336.84,479.13 339.46,478.24 340.32,478.02C341.19,477.81 342.42,477.26 343.06,476.81C343.70,476.37 344.54,476.00 344.94,476.00C345.33,476.00 346.91,475.43 348.45,474.72C349.99,474.02 352.12,473.06 353.18,472.60C356.78,471.02 373.73,462.45 374.49,461.82C374.91,461.47 375.81,460.92 376.50,460.59C377.19,460.26 378.43,459.55 379.25,459.01C380.07,458.47 381.33,457.70 382.05,457.29C382.76,456.89 385.01,455.41 387.05,454.02C400.78,444.60 402.52,443.33 407.24,439.26C408.62,438.08 410.88,436.15 412.25,434.98C424.29,424.72 437.68,410.21 447.97,396.25C451.34,391.68 458.58,380.87 459.18,379.50C459.37,379.09 460.18,377.74 460.99,376.50C461.80,375.26 462.81,373.57 463.23,372.75C463.66,371.93 464.56,370.35 465.23,369.25C465.90,368.15 466.70,366.69 467.01,366.00C467.32,365.31 468.99,361.82 470.74,358.25C474.83,349.86 476.00,347.29 476.00,346.72C476.00,346.46 476.43,345.35 476.95,344.25C478.58,340.85 480.58,335.43 482.23,330.00C482.60,328.76 483.26,326.85 483.68,325.75C484.11,324.65 484.47,323.23 484.48,322.60C484.49,321.97 484.82,320.83 485.21,320.08C485.60,319.33 486.07,317.82 486.25,316.73C486.44,315.64 487.01,313.29 487.51,311.50C488.65,307.47 490.36,298.96 491.02,294.07C491.29,292.04 491.60,290.24 491.71,290.07C492.00,289.59 492.97,280.90 493.34,275.50C494.24,262.24 493.42,230.44 492.01,223.75C491.72,222.38 491.26,219.68 490.99,217.75C490.38,213.43 488.68,205.18 487.64,201.50C487.21,199.99 486.57,197.51 486.21,196.00C484.86,190.27 482.63,183.05 480.95,178.91C480.43,177.62 479.99,176.27 479.98,175.91C479.97,175.55 479.53,174.35 479.00,173.25C478.47,172.15 478.03,171.00 478.02,170.69C478.00,170.19 477.02,167.77 474.78,162.75C473.82,160.58 464.39,141.67 463.49,140.09C459.95,133.89 454.10,124.80 448.80,117.26C447.91,116.00 443.52,110.34 440.64,106.75C428.50,91.60 408.28,72.78 392.99,62.38C391.49,61.36 389.26,59.82 388.06,58.98C386.85,58.13 384.65,56.72 383.17,55.84C381.68,54.97 379.63,53.75 378.61,53.14C367.13,46.31 358.50,41.97 346.50,37.03C344.99,36.40 342.79,35.47 341.61,34.95C340.44,34.43 339.15,34.00 338.75,34.00C338.35,34.00 337.06,33.57 335.89,33.03C333.39,31.91 329.79,30.70 326.22,29.78C324.82,29.42 323.25,28.91 322.72,28.63C322.18,28.36 320.85,27.98 319.75,27.79C318.65,27.60 316.29,27.02 314.50,26.50C307.87,24.59 295.81,22.31 288.00,21.48C285.39,21.21 282.01,20.76 280.50,20.50C274.06,19.37 257.70,18.84 246.34,19.41C240.19,19.71 234.16,20.19 232.95,20.47C231.74,20.75 228.39,21.19 225.50,21.45C213.96,22.49 194.72,26.92 181.50,31.58C179.16,32.41 176.24,33.38 175.00,33.74C173.76,34.11 172.07,34.76 171.25,35.20C170.43,35.64 169.46,36.00 169.10,36.00C168.75,36.00 167.40,36.56 166.11,37.25C164.81,37.94 163.46,38.50 163.10,38.50C162.74,38.50 161.62,38.94 160.60,39.48C159.58,40.02 155.49,42.07 151.50,44.03C147.51,46.00 143.12,48.24 141.75,49.01C140.38,49.79 138.57,50.77 137.75,51.20C136.93,51.63 135.81,52.27 135.27,52.61C134.74,52.96 132.60,54.32 130.52,55.62C125.59,58.73 125.66,58.69 122.75,60.73C121.38,61.69 119.01,63.32 117.50,64.35C104.25,73.33 82.99,93.54 71.32,108.25C70.01,109.90 68.22,112.13 67.34,113.20C63.73,117.63 55.34,130.18 52.44,135.50C52.00,136.32 51.40,137.27 51.11,137.62C49.71,139.31 40.81,156.95 38.30,163.00C37.56,164.79 36.54,167.15 36.04,168.25C35.11,170.29 34.47,172.00 33.14,176.00C32.73,177.24 31.99,179.38 31.51,180.75C29.81,185.54 29.41,186.77 28.43,190.25C27.05,195.15 25.57,201.13 24.70,205.25C24.30,207.18 23.64,209.99 23.23,211.50C22.82,213.01 22.27,216.16 22.02,218.50C21.77,220.84 21.32,223.99 21.03,225.50C20.22,229.74 19.01,248.42 19.02,256.50C19.04,270.52 20.97,290.20 23.46,301.75C26.06,313.83 27.27,318.61 29.34,325.00C29.74,326.24 30.37,328.44 30.75,329.90C31.12,331.36 31.63,332.82 31.89,333.15C32.15,333.48 32.52,334.42 32.72,335.23C32.91,336.05 33.51,337.67 34.04,338.83C34.57,339.99 35.00,341.18 35.00,341.46C35.00,341.93 35.56,343.30 38.00,348.75C38.49,349.85 39.39,351.88 40.00,353.25C43.03,360.11 49.01,371.56 52.00,376.23C52.41,376.88 53.60,378.88 54.64,380.68C55.68,382.48 56.77,384.11 57.06,384.29C57.36,384.47 57.92,385.33 58.31,386.19C59.77,389.44 70.49,403.60 77.47,411.50C87.49,422.84 98.46,433.26 109.75,442.16C112.78,444.54 115.59,446.79 116.00,447.15C116.81,447.86 124.98,453.40 126.54,454.29C127.07,454.59 127.89,455.17 128.37,455.58C129.28,456.34 135.78,460.26 138.00,461.38C138.69,461.72 140.15,462.54 141.25,463.20C143.15,464.33 155.45,470.53 159.75,472.52C164.89,474.90 167.48,476.00 167.97,476.00C168.26,476.00 169.34,476.45 170.37,477.00C171.40,477.55 172.54,478.00 172.92,478.00C173.29,478.00 174.31,478.33 175.17,478.73C177.16,479.64 192.04,484.50 192.86,484.50C193.20,484.50 194.89,484.93 196.61,485.45C202.08,487.11 216.98,490.08 224.25,490.97C226.45,491.23 229.82,491.70 231.75,492.01C239.59,493.26 264.02,493.51 276.45,492.47ZM242.50,375.50C236.97,374.88 225.49,373.05 224.91,372.70C224.64,372.53 223.14,372.10 221.58,371.74C220.02,371.38 217.62,370.71 216.25,370.25C211.47,368.66 203.12,365.09 201.96,364.15C201.53,363.79 200.98,363.50 200.75,363.50C199.80,363.50 190.79,357.10 186.17,353.16C180.00,347.89 170.64,335.30 167.46,328.00C167.16,327.31 166.48,325.85 165.96,324.75C165.43,323.65 165.00,322.52 165.00,322.24C165.00,321.96 164.59,320.95 164.08,319.99C163.57,319.03 162.88,317.13 162.54,315.76C162.20,314.39 161.75,313.04 161.53,312.76C161.32,312.48 160.99,311.57 160.81,310.75C160.63,309.93 160.05,307.56 159.52,305.50C157.57,297.91 156.52,291.55 155.18,279.25C154.79,275.63 154.75,244.79 155.13,241.25C157.73,217.20 160.71,205.32 167.82,190.75C170.32,185.64 170.26,185.73 173.99,180.02C179.07,172.24 191.31,160.56 198.00,157.11C198.69,156.75 200.15,155.91 201.25,155.24C202.35,154.57 203.81,153.77 204.50,153.47C205.19,153.17 206.58,152.49 207.60,151.96C208.62,151.43 209.72,151.00 210.04,151.00C210.37,151.00 211.57,150.57 212.70,150.04C217.43,147.81 229.83,144.90 238.25,144.04C241.28,143.73 245.44,143.23 247.50,142.93C255.11,141.84 277.86,143.46 287.25,145.76C297.02,148.16 304.67,150.85 309.50,153.59C309.91,153.83 310.95,154.34 311.80,154.73C314.73,156.09 321.78,161.05 326.50,165.09C329.17,167.36 335.75,174.62 337.43,177.13C337.88,177.81 338.92,179.35 339.73,180.56C341.38,182.99 342.01,184.07 344.38,188.49C345.27,190.16 346.01,191.80 346.01,192.14C346.02,192.48 346.46,193.31 347.00,194.00C347.54,194.69 347.98,195.59 347.99,196.00C348.00,196.41 348.34,197.39 348.75,198.18C349.16,198.97 349.82,200.77 350.22,202.18C350.62,203.59 351.31,205.88 351.75,207.25C352.19,208.62 352.87,210.76 353.26,212.00C353.66,213.24 354.11,215.26 354.26,216.50C354.42,217.74 354.87,219.99 355.27,221.50C355.66,223.01 356.50,228.30 357.12,233.25C358.10,241.12 358.24,244.48 358.22,260.00C358.20,275.11 358.03,278.98 357.13,286.00C356.02,294.55 354.37,303.65 353.45,306.25C353.16,307.07 352.63,308.99 352.28,310.50C351.39,314.31 349.50,319.53 346.95,325.25C346.45,326.35 345.81,327.81 345.51,328.50C345.22,329.19 344.43,330.65 343.76,331.75C343.09,332.85 342.26,334.31 341.90,335.00C341.55,335.69 340.64,337.15 339.87,338.25C339.11,339.35 337.65,341.49 336.63,343.00C334.20,346.60 325.04,355.73 321.33,358.26C315.09,362.51 311.71,364.38 303.25,368.27C301.02,369.30 292.50,372.00 291.50,372.00C291.02,372.00 289.71,372.32 288.60,372.72C283.60,374.48 272.61,375.62 259.25,375.77C252.10,375.85 244.56,375.73 242.50,375.50ZM86.30,373.73C85.57,373.00 85.50,362.50 85.50,257.06C85.50,167.61 85.64,141.06 86.10,140.60C86.84,139.86 127.77,139.72 128.22,140.46C128.38,140.71 128.51,193.29 128.51,257.30C128.51,348.34 128.37,373.77 127.90,374.06C127.56,374.27 118.24,374.46 107.19,374.48C89.42,374.52 87.00,374.43 86.30,373.73ZM383.88,373.46C383.05,372.98 383.00,366.89 383.00,256.69C383.00,177.51 383.17,140.13 383.52,139.47C384.02,138.53 384.78,138.50 405.00,138.50C425.22,138.50 425.98,138.53 426.48,139.47C427.28,140.96 427.20,372.60 426.40,373.40C425.62,374.18 385.21,374.24 383.88,373.46ZM265.19,338.03C270.68,337.55 275.54,336.40 279.25,334.71C280.07,334.33 281.54,333.67 282.50,333.25C286.37,331.54 289.85,329.02 294.04,324.89C297.79,321.19 302.35,314.85 304.37,310.50C308.14,302.37 311.08,292.26 311.99,284.35C312.25,282.10 312.72,278.56 313.04,276.50C313.78,271.67 313.78,246.48 313.03,241.50C312.72,239.44 312.25,235.95 311.99,233.76C311.72,231.57 311.18,228.64 310.79,227.26C310.39,225.88 309.84,223.62 309.57,222.25C308.39,216.36 304.53,207.53 300.26,201.00C297.71,197.10 292.22,191.40 288.71,189.03C285.73,187.01 277.19,183.01 274.81,182.52C273.68,182.28 271.06,181.72 269.00,181.26C265.13,180.41 252.23,180.09 248.22,180.74C244.35,181.37 237.22,183.09 235.75,183.74C227.28,187.50 223.87,189.58 219.82,193.43C214.95,198.08 209.17,206.40 207.25,211.49C206.89,212.46 206.00,214.82 205.26,216.75C204.53,218.68 203.51,222.21 203.00,224.61C202.49,227.01 201.94,229.19 201.78,229.46C201.61,229.73 201.03,233.73 200.50,238.35C199.38,247.89 199.14,266.83 200.02,275.57C201.25,287.80 203.67,298.65 206.54,304.80C207.07,305.93 207.50,307.10 207.50,307.38C207.50,308.02 210.94,314.20 213.40,318.00C215.69,321.53 221.48,327.31 225.00,329.60C229.24,332.34 235.54,335.50 236.78,335.50C237.19,335.50 238.81,335.95 240.39,336.51C242.16,337.13 245.25,337.64 248.50,337.83C251.39,338.01 254.20,338.33 254.75,338.56C255.30,338.79 256.54,338.88 257.50,338.76C258.46,338.64 261.92,338.31 265.19,338.03Z"/></svg>